<svg width="16" height="16" viewBox="0 0 16 16" fill="none" xmlns="http://www.w3.org/2000/svg">
<g clip-path="url(#clip0_187_2051)">
<path fill-rule="evenodd" clip-rule="evenodd" d="M8.22326 3.63683L2.18192 9.67816L1.35792 12.7515L0.815923 14.7762C0.800869 14.8327 0.800944 14.8923 0.816141 14.9488C0.831338 15.0053 0.861124 15.0568 0.902514 15.0982C0.943904 15.1396 0.995444 15.1694 1.05197 15.1846C1.1085 15.1998 1.16803 15.1999 1.22459 15.1848L3.24792 14.6422L6.32192 13.8182H6.32259L12.3639 7.77683L8.22392 3.63683H8.22326ZM14.8619 4.33683L11.6646 1.13883C11.6027 1.07686 11.5293 1.0277 11.4484 0.994164C11.3675 0.960624 11.2808 0.943359 11.1933 0.943359C11.1057 0.943359 11.019 0.960624 10.9381 0.994164C10.8573 1.0277 10.7838 1.07686 10.7219 1.13883L9.07192 2.78816L13.2126 6.92883L14.8619 5.27883C14.9239 5.21697 14.973 5.1435 15.0066 5.06262C15.0401 4.98175 15.0574 4.89505 15.0574 4.80749C15.0574 4.71994 15.0401 4.63324 15.0066 4.55236C14.973 4.47149 14.9239 4.39802 14.8619 4.33616" fill="#8B95A1"/>
</g>
<defs>
<clipPath id="clip0_187_2051">
<rect width="16" height="16" fill="white"/>
</clipPath>
</defs>
</svg>
