<svg width="20" height="21" viewBox="0 0 20 21" fill="none" xmlns="http://www.w3.org/2000/svg">
<path fill-rule="evenodd" clip-rule="evenodd" d="M19.0688 7.20407L10.6218 0.48707C10.4451 0.346227 10.2258 0.269531 9.9998 0.269531C9.77382 0.269531 9.55453 0.346227 9.3778 0.48707L0.929805 7.20407C0.694355 7.39135 0.504189 7.62933 0.373468 7.90029C0.242748 8.17126 0.174841 8.46822 0.174805 8.76907V18.1871C0.174805 18.8236 0.427661 19.434 0.877748 19.8841C1.32784 20.3342 1.93828 20.5871 2.5748 20.5871H7.9998V15.8351C7.9998 15.5699 8.10516 15.3155 8.2927 15.128C8.48023 14.9404 8.73459 14.8351 8.9998 14.8351H10.9998C11.265 14.8351 11.5194 14.9404 11.7069 15.128C11.8944 15.3155 11.9998 15.5699 11.9998 15.8351V20.5871H17.4238C18.0603 20.5871 18.6708 20.3342 19.1209 19.8841C19.5709 19.434 19.8238 18.8236 19.8238 18.1871V8.77007C19.8238 8.46922 19.7559 8.17226 19.6251 7.90129C19.4944 7.63033 19.3043 7.39235 19.0688 7.20507" fill="#1A1F27"/>
</svg>
