<svg width="24" height="25" viewBox="0 0 24 25" fill="none" xmlns="http://www.w3.org/2000/svg">
<path fill-rule="evenodd" clip-rule="evenodd" d="M16.8872 6.91059C16.8872 7.57913 16.7607 8.24113 16.5148 8.8588C16.2688 9.47647 15.9083 10.0377 15.4538 10.5105C14.9993 10.9833 14.4597 11.3583 13.8659 11.6142C13.272 11.8701 12.6355 12.0018 11.9927 12.0019C10.6944 12.0021 9.44932 11.4658 8.53124 10.5112C7.61315 9.55661 7.0973 8.2618 7.09717 6.91163C7.09711 6.2431 7.22365 5.5811 7.46959 4.96343C7.71553 4.34576 8.07603 3.78451 8.53053 3.31174C9.44843 2.35693 10.6934 1.82045 11.9917 1.82031C13.2899 1.82017 14.535 2.35639 15.4531 3.31101C16.3712 4.26562 16.887 5.56043 16.8872 6.91059ZM11.9922 13.5593C4.94317 13.5593 2.20117 18.2248 2.20117 20.3952C2.20117 22.5647 8.03817 23.1429 11.9922 23.1429C15.9462 23.1429 21.7832 22.5647 21.7832 20.3952C21.7832 18.2248 19.0412 13.5593 11.9922 13.5593Z" fill="#1A1F27"/>
</svg>
