<svg width="16" height="16" viewBox="0 0 16 16" fill="none" xmlns="http://www.w3.org/2000/svg">
<path fill-rule="evenodd" clip-rule="evenodd" d="M10.0443 11.1569C10.0443 11.3161 9.98111 11.4687 9.86859 11.5812C9.75607 11.6937 9.60346 11.7569 9.44433 11.7569C9.2852 11.7569 9.13258 11.6937 9.02006 11.5812C8.90754 11.4687 8.84433 11.3161 8.84433 11.1569V7.8196C8.84433 7.66047 8.90754 7.50786 9.02006 7.39533C9.13258 7.28281 9.2852 7.2196 9.44433 7.2196C9.60346 7.2196 9.75607 7.28281 9.86859 7.39533C9.98111 7.50786 10.0443 7.66047 10.0443 7.8196V11.1569ZM7.28899 11.1569C7.28899 11.3161 7.22578 11.4687 7.11326 11.5812C7.00073 11.6937 6.84812 11.7569 6.68899 11.7569C6.52986 11.7569 6.37725 11.6937 6.26473 11.5812C6.15221 11.4687 6.08899 11.3161 6.08899 11.1569V7.8196C6.08899 7.66047 6.15221 7.50786 6.26473 7.39533C6.37725 7.28281 6.52986 7.2196 6.68899 7.2196C6.84812 7.2196 7.00073 7.28281 7.11326 7.39533C7.22578 7.50786 7.28899 7.66047 7.28899 7.8196V11.1569ZM6.01966 2.57227C6.01966 2.39545 6.0899 2.22589 6.21492 2.10086C6.33995 1.97584 6.50951 1.9056 6.68633 1.9056H9.44899C9.81633 1.9056 10.1157 2.20427 10.1157 2.57227V3.1996H6.01966V2.57227ZM13.533 3.1996H11.449V2.57227C11.449 1.4696 10.5523 0.572266 9.44899 0.572266H6.68633C5.58366 0.572266 4.68633 1.4696 4.68633 2.57227V3.1996H2.46699C2.25482 3.1996 2.05134 3.28388 1.90131 3.43391C1.75128 3.58394 1.66699 3.78743 1.66699 3.9996V4.3996C1.66699 4.61177 1.75128 4.81526 1.90131 4.96528C2.05134 5.11531 2.25482 5.1996 2.46699 5.1996H2.55433L2.86899 13.2236C2.88536 13.6368 3.06104 14.0275 3.3592 14.314C3.65736 14.6005 4.05484 14.7604 4.46833 14.7603H11.6657C12.079 14.7604 12.4763 14.6004 12.7743 14.3139C13.0722 14.0274 13.2476 13.6366 13.2637 13.2236L13.5797 5.19027C13.7826 5.17987 13.9738 5.09212 14.1141 4.94506C14.2543 4.798 14.3329 4.60281 14.3337 4.3996V3.9996C14.3337 3.55827 13.975 3.1996 13.533 3.1996Z" fill="#8B95A1"/>
</svg>
